<svg
  width="150"
  height="150"
  viewBox="0 0 150 150"
  fill="none"
  xmlns="http://www.w3.org/2000/svg"
>
  <path
    d="M37.0576 72.6435L33.5221 76.1791L33.5221 76.1791L37.0576 72.6435ZM52.3444 49.0167L50.5683 53.6906L50.5684 53.6906L52.3444 49.0167ZM69.2631 55.4457L71.0392 50.7718L71.0392 50.7718L69.2631 55.4457ZM79.4863 55.4457L81.2623 60.1197L81.2624 60.1196L79.4863 55.4457ZM96.4047 49.0167L98.1808 53.6906L98.1808 53.6906L96.4047 49.0167ZM111.692 72.6435L108.156 69.108L108.156 69.108L111.692 72.6435ZM84.5499 99.7852L81.0144 96.2496L81.0143 96.2497L84.5499 99.7852ZM64.1992 99.7852L67.7348 96.2496L64.1992 99.7852ZM40.5932 69.108C33.4363 61.9512 41.1077 50.0954 50.5683 53.6906L54.1206 44.3428C34.5837 36.9185 18.7441 61.4011 33.5221 76.1791L40.5932 69.108ZM67.487 60.1196C71.9239 61.8056 76.8253 61.8056 81.2623 60.1197L77.7103 50.7718C75.5614 51.5883 73.1877 51.5882 71.0392 50.7718L67.487 60.1196ZM81.2624 60.1196L98.1808 53.6906L94.6286 44.3428L77.7102 50.7718L81.2624 60.1196ZM98.1808 53.6906C107.642 50.0953 115.313 61.9513 108.156 69.108L115.227 76.1791C130.006 61.4009 114.165 36.9186 94.6286 44.3428L98.1808 53.6906ZM108.156 69.108L81.0144 96.2496L88.0854 103.321L115.227 76.1791L108.156 69.108ZM81.0143 96.2497C77.3474 99.9167 71.402 99.9168 67.7348 96.2496L60.6637 103.321C68.2361 110.893 80.5133 110.893 88.0855 103.321L81.0143 96.2497ZM50.5684 53.6906L67.487 60.1196L71.0392 50.7718L54.1205 44.3428L50.5684 53.6906ZM33.5221 76.1791L60.6637 103.321L67.7348 96.2496L40.5931 69.108L33.5221 76.1791Z"
    fill="#286983"
  />
</svg>
