<svg
  width="150"
  height="150"
  viewBox="0 0 150 150"
  fill="none"
  xmlns="http://www.w3.org/2000/svg"
>
  <path
    d="M72.6435 112.942L76.1791 116.478L76.1791 116.478L72.6435 112.942ZM49.0167 97.6556L53.6906 99.4317L53.6906 99.4316L49.0167 97.6556ZM55.4457 80.7369L50.7718 78.9608L50.7718 78.9608L55.4457 80.7369ZM55.4457 70.5137L60.1197 68.7377L60.1196 68.7376L55.4457 70.5137ZM49.0167 53.5953L53.6906 51.8192L53.6906 51.8192L49.0167 53.5953ZM72.6435 38.3085L69.108 41.844L69.108 41.844L72.6435 38.3085ZM99.7852 65.4501L96.2496 68.9856L96.2497 68.9857L99.7852 65.4501ZM99.7852 85.8008L96.2496 82.2652L99.7852 85.8008ZM69.108 109.407C61.9512 116.564 50.0954 108.892 53.6906 99.4317L44.3428 95.8794C36.9185 115.416 61.4011 131.256 76.1791 116.478L69.108 109.407ZM60.1196 82.513C61.8056 78.0761 61.8056 73.1747 60.1197 68.7377L50.7718 72.2897C51.5883 74.4386 51.5882 76.8123 50.7718 78.9608L60.1196 82.513ZM60.1196 68.7376L53.6906 51.8192L44.3428 55.3714L50.7718 72.2898L60.1196 68.7376ZM53.6906 51.8192C50.0953 42.3583 61.9513 34.6872 69.108 41.844L76.1791 34.773C61.4009 19.9945 36.9186 35.8349 44.3428 55.3714L53.6906 51.8192ZM69.108 41.844L96.2496 68.9856L103.321 61.9146L76.1791 34.7729L69.108 41.844ZM96.2497 68.9857C99.9167 72.6526 99.9168 78.598 96.2496 82.2652L103.321 89.3363C110.893 81.7639 110.893 69.4867 103.321 61.9145L96.2497 68.9857ZM53.6906 99.4316L60.1196 82.513L50.7718 78.9608L44.3428 95.8795L53.6906 99.4316ZM76.1791 116.478L103.321 89.3363L96.2496 82.2652L69.108 109.407L76.1791 116.478Z"
    fill="#D7827E"
  />
</svg>
