<svg width="100" height="100" viewBox="0 0 100 100" fill="none" xmlns="http://www.w3.org/2000/svg">
<g filter="url(#filter0_d)">
<path fill-rule="evenodd" clip-rule="evenodd" d="M50 25C36.1929 25 25 36.1929 25 50C25 63.8071 36.1929 75 50 75C63.8071 75 75 63.8071 75 50C75 36.1929 63.8071 25 50 25ZM50 68C59.9411 68 68 59.9411 68 50C68 40.0589 59.9411 32 50 32C40.0589 32 32 40.0589 32 50C32 59.9411 40.0589 68 50 68Z" fill="url(#paint0_linear)"/>
</g>
<defs>
<filter id="filter0_d" x="21" y="25" width="58" height="58" filterUnits="userSpaceOnUse" color-interpolation-filters="sRGB">
<feFlood flood-opacity="0" result="BackgroundImageFix"/>
<feColorMatrix in="SourceAlpha" type="matrix" values="0 0 0 0 0 0 0 0 0 0 0 0 0 0 0 0 0 0 127 0"/>
<feOffset dy="4"/>
<feGaussianBlur stdDeviation="2"/>
<feColorMatrix type="matrix" values="0 0 0 0 0.921569 0 0 0 0 0.737255 0 0 0 0 0.729412 0 0 0 0.25 0"/>
<feBlend mode="normal" in2="BackgroundImageFix" result="effect1_dropShadow"/>
<feBlend mode="normal" in="SourceGraphic" in2="effect1_dropShadow" result="shape"/>
</filter>
<linearGradient id="paint0_linear" x1="38.8889" y1="34.127" x2="61.5079" y2="65.4762" gradientUnits="userSpaceOnUse">
<stop stop-color="#F28779"/>
<stop offset="1" stop-color="#EBBCBA"/>
</linearGradient>
</defs>
</svg>
