<svg width="75" height="75" viewBox="0 0 75 75" fill="none" xmlns="http://www.w3.org/2000/svg">
<path d="M36.3218 56.4712L38.0895 58.239L38.0895 58.239L36.3218 56.4712ZM24.5084 48.8278L26.8453 49.7159L26.8453 49.7158L24.5084 48.8278ZM27.7229 40.3685L25.3859 39.4804L25.3859 39.4804L27.7229 40.3685ZM27.7229 35.2569L30.0598 34.3689L30.0598 34.3688L27.7229 35.2569ZM24.5084 26.7977L26.8453 25.9096L26.8453 25.9096L24.5084 26.7977ZM36.3218 19.1542L34.554 20.922L34.554 20.922L36.3218 19.1542ZM49.8926 32.725L48.1248 34.4928L48.1248 34.4928L49.8926 32.725ZM49.8926 42.9004L48.1248 41.1326L48.1248 41.1326L49.8926 42.9004ZM34.554 54.7034C30.9756 58.2818 25.0477 54.4462 26.8453 49.7159L22.1714 47.9397C18.4593 57.7081 30.7005 65.6279 38.0895 58.239L34.554 54.7034ZM30.0598 41.2565C30.9028 39.0381 30.9028 36.5874 30.0598 34.3689L25.3859 36.1448C25.7941 37.2193 25.7941 38.4062 25.3859 39.4804L30.0598 41.2565ZM30.0598 34.3688L26.8453 25.9096L22.1714 27.6857L25.3859 36.1449L30.0598 34.3688ZM26.8453 25.9096C25.0477 21.1791 30.9757 17.3436 34.554 20.922L38.0896 17.3865C30.7005 9.99725 18.4593 17.9174 22.1714 27.6857L26.8453 25.9096ZM34.554 20.922L48.1248 34.4928L51.6603 30.9573L38.0895 17.3865L34.554 20.922ZM48.1248 34.4928C49.9584 36.3263 49.9584 39.299 48.1248 41.1326L51.6603 44.6682C55.4465 40.882 55.4466 34.7434 51.6603 30.9572L48.1248 34.4928ZM26.8453 49.7158L30.0598 41.2565L25.3859 39.4804L22.1714 47.9397L26.8453 49.7158ZM38.0895 58.239L51.6603 44.6682L48.1248 41.1326L34.554 54.7034L38.0895 58.239Z" fill="#E2BFAB"/>
</svg>
