<svg width="75" height="75" viewBox="0 0 75 75" fill="none" xmlns="http://www.w3.org/2000/svg">
<path d="M18.5288 36.3218L16.761 38.0895L18.5288 36.3218ZM26.1722 24.5084L25.2841 26.8453L25.2842 26.8453L26.1722 24.5084ZM34.6315 27.7229L35.5196 25.3859L35.5196 25.3859L34.6315 27.7229ZM39.7431 27.7229L40.6311 30.0598L40.6312 30.0598L39.7431 27.7229ZM48.2023 24.5084L49.0904 26.8453L49.0904 26.8453L48.2023 24.5084ZM55.8458 36.3218L54.078 34.554L54.078 34.554L55.8458 36.3218ZM42.275 49.8926L40.5072 48.1248L40.5071 48.1248L42.275 49.8926ZM32.0996 49.8926L33.8674 48.1248L32.0996 49.8926ZM20.2966 34.554C16.7182 30.9756 20.5538 25.0477 25.2841 26.8453L27.0603 22.1714C17.2919 18.4593 9.37205 30.7005 16.761 38.0895L20.2966 34.554ZM33.7435 30.0598C35.9619 30.9028 38.4126 30.9028 40.6311 30.0598L38.8552 25.3859C37.7807 25.7941 36.5938 25.7941 35.5196 25.3859L33.7435 30.0598ZM40.6312 30.0598L49.0904 26.8453L47.3143 22.1714L38.8551 25.3859L40.6312 30.0598ZM49.0904 26.8453C53.8209 25.0477 57.6564 30.9757 54.078 34.554L57.6135 38.0896C65.0028 30.7005 57.0826 18.4593 47.3143 22.1714L49.0904 26.8453ZM54.078 34.554L40.5072 48.1248L44.0427 51.6603L57.6135 38.0895L54.078 34.554ZM40.5071 48.1248C38.6737 49.9584 35.701 49.9584 33.8674 48.1248L30.3318 51.6603C34.118 55.4465 40.2566 55.4466 44.0428 51.6603L40.5071 48.1248ZM25.2842 26.8453L33.7435 30.0598L35.5196 25.3859L27.0603 22.1714L25.2842 26.8453ZM16.761 38.0895L30.3318 51.6603L33.8674 48.1248L20.2966 34.554L16.761 38.0895Z" fill="#31748F"/>
</svg>
